first trial
nRows=39
nColumns=38

# SIMM Motion File Header:
name Sujet_07_velo_80.mvnx
datacolumns 38
datarows 39
otherdata 1
range 11.6990 12.3320
endheader
time pelvis_tilt  pelvis_list  pelvis_rotation  pelvis_tx  pelvis_ty  pelvis_tz  hip_flexion_r  hip_adduction_r  hip_rotation_r  knee_angle_r  ankle_angle_r  subtalar_angle_r  mtp_angle_r  hip_flexion_l  hip_adduction_l  hip_rotation_l  knee_angle_l  ankle_angle_l  subtalar_angle_l  mtp_angle_l  lumbar_extension  lumbar_bending  lumbar_rotation  arm_flex_r  arm_add_r  arm_rot_r  elbow_flex_r  pro_sup_r  wrist_flex_r  wrist_dev_r  arm_flex_l  arm_add_l  arm_rot_l  elbow_flex_l  pro_sup_l  wrist_flex_l  wrist_dev_l
11.6990	-30.1166	3.3480	-40.4494	0.0000	1.2500	-0.0000	51.9642	-12.2637	-9.4606	37.4421	-14.5646	-2.0812	0.0000	93.6854	-6.0692	-0.5810	93.3967	11.8284	-3.5346	0.0000	-15.8727	0.3052	-2.5696	101.3195	0.3201	20.9081	6.9261	60.5637	-46.4060	-43.1630	85.4819	2.5486	38.4177	7.9040	44.0755	-44.3922	-46.1215	
11.7160	-30.1303	3.1433	-40.9569	0.0000	1.2500	-0.0000	53.2565	-12.0234	-9.7785	41.8744	-12.5940	-2.1911	0.0000	92.8209	-6.0596	-1.6201	89.8487	11.9257	-4.0234	0.0000	-15.9155	0.2958	-2.4433	101.6438	0.5002	20.6271	6.7445	61.6441	-46.5288	-43.5713	85.3700	2.5031	38.2454	8.0779	44.0359	-44.3572	-46.0299	
11.7320	-30.0455	2.8428	-41.6502	0.0000	1.2500	-0.0000	54.8491	-11.7493	-10.2217	46.9406	-10.5272	-2.1583	0.0000	91.4644	-6.1283	-2.9036	85.8350	11.5496	-4.4617	0.0000	-16.0055	0.2846	-2.2685	102.0946	0.7183	20.2243	6.4474	62.9524	-46.6435	-43.9818	85.2618	2.4049	37.9765	8.2312	43.9863	-44.2109	-45.8720	
11.7490	-29.8721	2.5258	-42.4266	0.0000	1.2500	-0.0000	56.7389	-11.4896	-10.3681	52.2910	-8.9354	-1.9613	-0.0000	89.7533	-6.2675	-4.0444	81.6351	10.6002	-4.6866	-0.0000	-16.1315	0.2640	-2.0804	102.4979	0.9283	19.8766	6.2126	64.1557	-46.7251	-44.2438	85.1847	2.2866	37.6564	8.2667	43.9278	-44.0051	-45.7108	
11.7660	-29.5776	2.2335	-43.2447	0.0000	1.2500	-0.0000	59.0057	-11.2363	-10.0492	58.0654	-8.0790	-1.5610	-0.0000	87.6811	-6.4759	-4.9488	77.2903	8.9212	-4.5862	-0.0000	-16.3027	0.2268	-1.8952	102.7815	1.1272	19.5802	6.1234	65.1976	-46.7720	-44.2711	85.1617	2.1459	37.3054	8.1083	43.8783	-43.7537	-45.5763	
11.7820	-29.1935	1.9312	-44.1414	0.0000	1.2500	-0.0000	61.5705	-10.9418	-9.4521	64.1490	-7.6925	-0.9504	0.0000	85.2444	-6.7491	-5.7387	72.7505	6.6758	-4.2523	0.0000	-16.5099	0.1791	-1.6974	103.0173	1.3185	19.3397	6.0935	66.1346	-46.7898	-44.1529	85.1696	1.9836	36.9036	7.8324	43.8205	-43.4426	-45.4382	
11.7990	-28.8267	1.5823	-45.1330	0.0000	1.2500	-0.0000	64.1974	-10.5851	-8.6817	69.8296	-7.5611	-0.1677	0.0000	82.5765	-7.0978	-6.3483	68.1586	4.2433	-3.8287	-0.0000	-16.7144	0.1341	-1.4745	103.2449	1.4698	19.3452	6.0399	66.8025	-46.7667	-44.0035	85.1666	1.8378	36.4360	7.5700	43.7027	-43.0812	-45.2688	
11.8160	-28.4983	1.1718	-46.2441	0.0000	1.2500	-0.0000	66.8334	-10.1592	-7.7275	74.8886	-7.8153	0.9031	0.0000	79.6392	-7.5322	-6.7446	63.4577	1.6581	-3.3379	-0.0000	-16.9125	0.0954	-1.2198	103.4468	1.5607	19.8135	5.9173	67.0073	-46.6738	-43.8479	85.1342	1.7137	35.8277	7.3835	43.5207	-42.6137	-45.0121	
11.8320	-28.1828	0.7155	-47.4492	0.0000	1.2500	-0.0000	69.5319	-9.6391	-6.6244	79.5452	-8.3123	2.1277	-0.0000	76.4574	-8.0512	-7.0034	58.7091	-1.1094	-2.7389	-0.0000	-17.1088	0.0586	-0.9403	103.6371	1.6171	20.5288	5.7689	66.9417	-46.5401	-43.6616	85.0901	1.6078	35.1532	7.2096	43.2779	-42.0936	-44.7215	
11.8490	-27.9164	0.2183	-48.6926	0.0000	1.2500	-0.0000	72.2163	-9.0113	-5.5389	83.7377	-8.4449	3.0734	0.0000	73.2612	-8.6560	-7.2124	54.2391	-3.7867	-2.1145	-0.0000	-17.2767	0.0250	-0.6430	103.9043	1.6750	21.0324	5.6427	67.0210	-46.4403	-43.4840	85.0482	1.5462	34.6217	6.9899	42.9334	-41.6954	-44.5358	
11.8660	-27.7100	-0.3415	-50.0042	0.0000	1.2500	-0.0000	74.8946	-8.2611	-4.4659	87.4501	-8.0495	3.6494	0.0000	70.0369	-9.4045	-7.3725	50.0574	-6.3440	-1.4868	0.0000	-17.4109	-0.0070	-0.3152	104.3545	1.7305	21.0574	5.5559	67.4719	-46.4093	-43.3191	85.0211	1.5441	34.3856	6.6813	42.3918	-41.4866	-44.5254	
11.8820	-27.5484	-0.9461	-51.3565	0.0000	1.2500	-0.0000	77.5567	-7.4125	-3.4304	90.6931	-7.3119	3.9533	0.0000	66.7861	-10.2444	-7.5127	46.1516	-8.8311	-0.8670	0.0000	-17.5171	-0.0348	0.0310	104.8855	1.7852	20.8718	5.4895	68.0673	-46.4115	-43.1618	84.9986	1.5863	34.2926	6.3236	41.7465	-41.4021	-44.6230	
11.8990	-27.4330	-1.5340	-52.6109	0.0000	1.2500	-0.0000	80.0985	-6.5490	-2.6194	93.4455	-6.1630	3.8430	0.0000	63.7729	-11.0122	-7.7153	42.8169	-11.1016	-0.3358	-0.0000	-17.5841	-0.0493	0.3522	105.2728	1.8805	20.8173	5.4377	68.5419	-46.4160	-43.0378	84.9608	1.6531	34.0952	5.9849	41.2412	-41.4201	-44.7638	
11.9160	-27.3706	-2.1070	-53.7639	0.0000	1.2500	-0.0000	82.5410	-5.6832	-2.0710	95.7530	-4.4917	3.2313	0.0000	61.0473	-11.6891	-7.9252	40.1017	-13.1890	0.0566	0.0000	-17.5985	-0.0491	0.6381	105.3807	2.0501	21.0889	5.3987	68.7611	-46.4135	-42.9635	84.8965	1.7487	33.6099	5.6823	41.0353	-41.5961	-44.9510	
11.9320	-27.3580	-2.6686	-54.8227	0.0000	1.2500	-0.0000	84.8681	-4.8455	-1.7217	97.5676	-2.4069	2.1965	-0.0000	58.5679	-12.3071	-8.1548	37.9449	-15.0650	0.3505	0.0000	-17.5735	-0.0333	0.8997	105.3419	2.2565	21.4901	5.3760	68.8599	-46.4135	-42.9226	84.8178	1.8703	33.0204	5.4027	40.9707	-41.8762	-45.1842	
11.9490	-27.3876	-3.1592	-55.6640	0.0000	1.2500	-0.0000	86.9236	-4.1637	-1.5664	98.7294	-0.1701	0.8585	0.0000	56.4798	-12.7796	-8.5362	36.5025	-16.4798	0.6218	-0.0000	-17.5377	0.0059	1.1252	105.3338	2.4351	21.7747	5.3726	68.9779	-46.4125	-42.8915	84.7385	1.9876	32.6301	5.1705	40.8163	-42.0728	-45.3904	
11.9660	-27.4762	-3.5739	-56.2403	0.0000	1.2500	-0.0000	88.6984	-3.6956	-1.5890	99.1879	2.2842	-0.9631	0.0000	54.8078	-13.0675	-9.1800	35.7908	-17.3252	0.9219	0.0000	-17.4967	0.0788	1.3170	105.4514	2.5487	21.8170	5.3913	69.1953	-46.4001	-42.8626	84.6626	2.0798	32.5841	4.9906	40.4558	-42.0968	-45.5456	
11.9820	-27.6146	-3.9193	-56.6008	0.0000	1.2500	-0.0000	90.2072	-3.4043	-1.7486	98.9996	4.8579	-3.0168	-0.0000	53.5438	-13.2208	-9.9230	35.8125	-17.6989	1.2093	0.0000	-17.4442	0.1749	1.4727	105.6020	2.6352	21.7427	5.4291	69.4320	-46.3868	-42.8432	84.5854	2.1655	32.7375	4.8583	40.0065	-42.0359	-45.6707	
11.9990	-27.7579	-4.1524	-56.7644	0.0000	1.2500	-0.0000	91.3302	-3.2668	-1.9894	98.1629	7.0867	-4.5798	0.0000	52.7842	-13.2942	-10.4773	36.7179	-17.6540	1.4230	-0.0000	-17.3905	0.2699	1.5731	105.6830	2.7437	21.6831	5.4805	69.5870	-46.4010	-42.8324	84.5058	2.2719	32.9584	4.7825	39.5869	-41.9665	-45.7585	
12.0160	-27.9082	-4.2648	-56.7248	0.0000	1.2500	-0.0000	92.0655	-3.2709	-2.2445	96.6220	8.8617	-5.3376	0.0000	52.5992	-13.2985	-10.7814	38.6504	-17.0787	1.4708	-0.0000	-17.3338	0.3662	1.6097	105.6460	2.9029	21.6907	5.5533	69.6188	-46.4661	-42.8260	84.4150	2.4286	33.2407	4.7660	39.1861	-41.9062	-45.8015	
12.0320	-28.0656	-4.2625	-56.4866	0.0000	1.2500	-0.0000	92.4153	-3.4218	-2.5640	94.4276	10.3355	-5.6962	0.0000	52.9179	-13.2408	-10.8866	41.4673	-16.0812	1.4320	0.0000	-17.2749	0.4612	1.5909	105.5393	3.0834	21.7136	5.6403	69.5690	-46.5588	-42.8286	84.3215	2.6052	33.5909	4.8063	38.8155	-41.8370	-45.8069	
12.0490	-28.1819	-4.1235	-56.0833	0.0000	1.2500	-0.0000	92.2655	-3.7165	-3.0787	91.7337	11.4764	-6.0469	0.0000	53.6208	-13.1723	-10.6837	44.8917	-15.0427	1.5042	-0.0000	-17.2285	0.5239	1.5228	105.4052	3.2470	21.7258	5.7138	69.4613	-46.6379	-42.8525	84.2496	2.7408	33.8963	4.9046	38.6273	-41.7828	-45.7895	
12.0660	-28.2346	-3.8210	-55.5184	0.0000	1.2500	-0.0000	91.5725	-4.1338	-3.8545	88.5473	12.2341	-6.5499	0.0000	54.7264	-13.1080	-10.0674	48.9923	-14.0197	1.7465	-0.0000	-17.2012	0.5354	1.4017	105.2595	3.3872	21.7739	5.7620	69.2413	-46.6884	-42.9110	84.1992	2.8036	34.1238	5.0806	38.6952	-41.7643	-45.7561	
12.0820	-28.2415	-3.3822	-54.7883	0.0000	1.2500	-0.0000	90.3805	-4.6754	-4.8520	84.8544	12.6596	-7.0303	-0.0000	56.2202	-13.0035	-9.1582	53.6977	-12.9502	2.0983	-0.0000	-17.1871	0.5144	1.2314	105.0869	3.5113	21.8115	5.7959	68.9629	-46.7249	-42.9905	84.1702	2.8265	34.3056	5.3132	38.9443	-41.7610	-45.7006	
12.0990	-28.2138	-2.8663	-53.9174	0.0000	1.2500	-0.0000	88.7043	-5.3663	-6.0561	80.7765	12.8755	-7.3306	-0.0000	57.9313	-12.8231	-8.1872	58.5264	-12.0363	2.5838	-0.0000	-17.1830	0.4861	1.0288	104.8822	3.6021	21.6728	5.8228	68.8128	-46.7503	-43.0633	84.1864	2.8468	34.4260	5.5421	39.3042	-41.7346	-45.6187	
12.1160	-28.1296	-2.2601	-52.8824	0.0000	1.2500	-0.0000	86.4516	-6.2166	-7.6538	76.2614	13.0376	-7.3902	-0.0000	59.8127	-12.5361	-7.2244	63.4224	-11.4022	3.2807	0.0000	-17.1935	0.4493	0.7928	104.5892	3.6505	21.2005	5.8433	68.9452	-46.7518	-43.1071	84.2572	2.8682	34.4123	5.7591	39.8156	-41.6407	-45.4840	
12.1320	-28.0035	-1.5804	-51.7093	0.0000	1.2500	-0.0000	83.7066	-7.1556	-9.5282	71.3432	12.9890	-7.2700	0.0000	61.9061	-12.1505	-6.2304	68.4456	-10.9220	4.1106	0.0000	-17.2152	0.4052	0.5246	104.2627	3.6668	20.5516	5.8580	69.2061	-46.7423	-43.1444	84.3730	2.8878	34.3373	5.9720	40.4380	-41.5239	-45.3233	
12.1490	-27.9064	-0.9278	-50.4922	0.0000	1.2500	-0.0000	80.7446	-8.1161	-11.1959	66.3011	12.3799	-7.0072	-0.0000	64.1698	-11.7056	-5.2634	73.2905	-10.4253	4.8651	0.0000	-17.2310	0.3826	0.2444	104.0631	3.6631	20.0307	5.8743	69.3198	-46.7634	-43.2150	84.5273	2.9339	34.4031	6.1457	40.9802	-41.4791	-45.2120	
12.1660	-27.8615	-0.3251	-49.2232	0.0000	1.2500	-0.0000	77.5392	-9.1459	-12.5628	61.1238	11.1085	-6.6624	-0.0000	66.6286	-11.1913	-4.3420	77.9032	-9.9510	5.5473	0.0000	-17.2403	0.3985	-0.0496	104.1035	3.6427	19.7728	5.8813	69.1590	-46.8399	-43.3362	84.7278	3.0273	34.6851	6.2487	41.3799	-41.5603	-45.1868	
12.1820	-27.8460	0.2541	-47.9071	0.0000	1.2500	-0.0000	74.0969	-10.1993	-13.7671	55.8746	9.2703	-6.2069	-0.0000	69.2505	-10.6049	-3.4709	82.3356	-9.4608	6.1573	-0.0000	-17.2431	0.4361	-0.3558	104.2710	3.6001	19.6420	5.8870	68.8500	-46.9467	-43.4905	84.9645	3.1498	35.1078	6.3127	41.6997	-41.7131	-45.2103	
12.1990	-27.8675	0.7856	-46.6539	0.0000	1.2500	-0.0000	70.7501	-11.1421	-14.6151	50.9529	6.8047	-5.5486	-0.0000	71.9127	-10.0126	-2.6636	86.4419	-8.6747	6.4880	-0.0000	-17.2230	0.4720	-0.6489	104.3875	3.5357	19.5371	5.9270	68.4984	-47.0510	-43.6652	85.2054	3.2707	35.6464	6.3981	41.9354	-41.8700	-45.2468	
12.2160	-27.9415	1.2556	-45.4748	0.0000	1.2500	-0.0000	67.5679	-12.0175	-14.8797	46.3848	3.4481	-4.5225	0.0000	74.6324	-9.4473	-1.8870	90.2345	-7.4950	6.4714	-0.0000	-17.1683	0.5043	-0.9254	104.3874	3.4444	19.4190	6.0186	68.1390	-47.1561	-43.8822	85.4625	3.3702	36.3876	6.5343	42.0266	-42.0003	-45.2896	
12.2320	-28.0570	1.6817	-44.3558	0.0000	1.2500	-0.0000	64.4807	-12.8613	-14.7559	42.1041	-0.5531	-3.2937	-0.0000	77.3952	-8.8821	-1.1663	93.7021	-6.0282	6.1876	0.0000	-17.0907	0.5340	-1.1894	104.3354	3.3330	19.3268	6.1449	67.7370	-47.2583	-44.1194	85.7239	3.4681	37.2447	6.6936	42.0341	-42.1346	-45.3456	
12.2490	-28.1844	2.0852	-43.3724	0.0000	1.2500	-0.0000	61.6316	-13.5363	-14.6249	38.3643	-4.4964	-2.2251	0.0000	80.0357	-8.3160	-0.5787	96.6631	-4.3048	5.6536	0.0000	-17.0094	0.5431	-1.4274	104.2496	3.2211	19.2776	6.2934	67.2939	-47.3151	-44.2994	85.9227	3.5915	37.9334	6.8493	42.1350	-42.2970	-45.3996	
12.2660	-28.3209	2.4642	-42.5754	0.0000	1.2500	-0.0000	59.0464	-13.9760	-14.5459	35.1857	-8.4193	-1.3464	-0.0000	82.5556	-7.7690	-0.1395	99.1073	-2.2752	4.8440	0.0000	-16.9275	0.5199	-1.6292	104.1242	3.0985	19.2789	6.4791	66.7849	-47.2935	-44.3829	86.0241	3.7664	38.3123	6.9988	42.4506	-42.5210	-45.4533	
12.2820	-28.4730	2.8202	-41.9140	0.0000	1.2500	-0.0000	56.7177	-14.2670	-14.3993	32.5616	-12.3006	-0.5309	-0.0000	84.9574	-7.2513	0.1947	101.0449	0.0033	3.7936	0.0000	-16.8416	0.4765	-1.8048	103.9658	2.9751	19.3237	6.6898	66.2354	-47.2270	-44.4095	86.0634	3.9642	38.5225	7.1425	42.8592	-42.7729	-45.5041	
12.2990	-28.6256	3.1778	-41.3120	0.0000	1.2500	-0.0000	54.7449	-14.4694	-14.2864	30.7358	-15.3187	0.0738	0.0000	87.0780	-6.7587	0.4431	102.3243	2.3440	2.6021	0.0000	-16.7615	0.4309	-1.9704	103.8121	2.8998	19.4080	6.8710	65.7220	-47.1735	-44.4213	86.0798	4.1295	38.7032	7.2582	43.1740	-42.9767	-45.5306	
12.3160	-28.7793	3.5719	-40.7182	0.0000	1.2500	-0.0000	53.1363	-14.5885	-14.2113	29.8007	-17.1007	0.3601	0.0000	88.8981	-6.2768	0.6772	102.9065	4.8312	1.1614	0.0000	-16.6874	0.3833	-2.1402	103.6741	2.9084	19.5674	6.9921	65.2029	-47.1546	-44.4178	86.0753	4.2431	38.9345	7.3244	43.2882	-43.1100	-45.5198	
12.3320	-28.9340	3.9674	-40.1838	0.0000	1.2500	-0.0000	51.8906	-14.6231	-14.1467	29.6781	-17.9874	0.4175	0.0000	90.4408	-5.8315	0.8472	102.8289	7.3770	-0.4152	0.0000	-16.6186	0.3338	-2.2999	103.5420	2.9641	19.7666	7.0821	64.7201	-47.1486	-44.3996	86.0493	4.3236	39.1364	7.3644	43.3093	-43.1957	-45.4853	
